<svg xmlns="http://www.w3.org/2000/svg" xmlns:xlink="http://www.w3.org/1999/xlink" version="1.1" width="1000" height="1000" viewBox="0 0 1000 1000" xml:space="preserve">
<desc>Created with Fabric.js 3.5.0</desc>
<defs>
</defs>
<rect x="0" y="0" width="100%" height="100%" fill="#ffffff"/>
<g transform="matrix(1.7793 0 0 1.7793 500.006 500.006)" id="291600">
<g style="" vector-effect="non-scaling-stroke">
		<g transform="matrix(1 0 0 1 0.0004 -102.4001)" id="Layer_1">
<path style="stroke: none; stroke-width: 1; stroke-dasharray: none; stroke-linecap: butt; stroke-dashoffset: 0; stroke-linejoin: miter; stroke-miterlimit: 4; is-custom-font: none; font-file-url: none; fill: rgb(255,0,0); fill-rule: nonzero; opacity: 1;" transform=" translate(-254.4669, -152.0664)" d="M 397.827 189.933 L 261.293 2.2 c -3.413 -4.267 -10.24 -4.267 -13.653 0 L 111.107 189.933 c -1.707 2.56 -2.56 5.973 -0.853 8.533 c 1.707 2.56 4.267 4.267 7.68 4.267 h 85.333 V 296.6 c 0 5.12 3.413 8.533 8.533 8.533 h 85.333 c 5.12 0 8.533 -3.413 8.533 -8.533 v -93.867 H 391 c 3.413 0 5.973 -1.707 7.68 -4.267 S 399.533 192.493 397.827 189.933 z M 297.133 185.667 c -5.12 0 -8.533 3.413 -8.533 8.533 v 93.867 h -68.267 V 194.2 c 0 -5.12 -3.413 -8.533 -8.533 -8.533 H 135 L 254.467 20.973 l 119.467 164.693 H 297.133 z" stroke-linecap="round"/>
</g>
		<g transform="matrix(1 0 0 1 0.0005 93.3335)" id="Layer_1">
<path style="stroke: none; stroke-width: 1; stroke-dasharray: none; stroke-linecap: butt; stroke-dashoffset: 0; stroke-linejoin: miter; stroke-miterlimit: 4; is-custom-font: none; font-file-url: none; fill: rgb(255,0,0); fill-rule: nonzero; opacity: 1;" transform=" translate(-254.467, -347.8)" d="M 280.067 322.2 h -51.2 c -14.507 0 -25.6 11.093 -25.6 25.6 c 0 14.507 11.093 25.6 25.6 25.6 h 51.2 c 14.507 0 25.6 -11.093 25.6 -25.6 C 305.667 333.293 294.573 322.2 280.067 322.2 z M 280.067 356.333 h -51.2 c -5.12 0 -8.533 -3.413 -8.533 -8.533 s 3.413 -8.533 8.533 -8.533 h 51.2 c 5.12 0 8.533 3.413 8.533 8.533 S 285.187 356.333 280.067 356.333 z" stroke-linecap="round"/>
</g>
		<g transform="matrix(1 0 0 1 0.0005 161.6005)" id="Layer_1">
<path style="stroke: none; stroke-width: 1; stroke-dasharray: none; stroke-linecap: butt; stroke-dashoffset: 0; stroke-linejoin: miter; stroke-miterlimit: 4; is-custom-font: none; font-file-url: none; fill: rgb(255,0,0); fill-rule: nonzero; opacity: 1;" transform=" translate(-254.467, -416.067)" d="M 280.067 390.467 h -51.2 c -14.507 0 -25.6 11.093 -25.6 25.6 s 11.093 25.6 25.6 25.6 h 51.2 c 14.507 0 25.6 -11.093 25.6 -25.6 S 294.573 390.467 280.067 390.467 z M 280.067 424.6 h -51.2 c -5.12 0 -8.533 -3.413 -8.533 -8.533 s 3.413 -8.533 8.533 -8.533 h 51.2 c 5.12 0 8.533 3.413 8.533 8.533 S 285.187 424.6 280.067 424.6 z" stroke-linecap="round"/>
</g>
		<g transform="matrix(1 0 0 1 0.0005 229.8665)" id="Layer_1">
<path style="stroke: none; stroke-width: 1; stroke-dasharray: none; stroke-linecap: butt; stroke-dashoffset: 0; stroke-linejoin: miter; stroke-miterlimit: 4; is-custom-font: none; font-file-url: none; fill: rgb(255,0,0); fill-rule: nonzero; opacity: 1;" transform=" translate(-254.467, -484.333)" d="M 280.067 458.733 h -51.2 c -14.507 0 -25.6 11.093 -25.6 25.6 s 11.093 25.6 25.6 25.6 h 51.2 c 14.507 0 25.6 -11.093 25.6 -25.6 S 294.573 458.733 280.067 458.733 z M 280.067 492.867 h -51.2 c -5.12 0 -8.533 -3.413 -8.533 -8.533 s 3.413 -8.533 8.533 -8.533 h 51.2 c 5.12 0 8.533 3.413 8.533 8.533 S 285.187 492.867 280.067 492.867 z" stroke-linecap="round"/>
</g>
</g>
</g>
</svg>